<?xml version="1.0" encoding="utf-8"?>
<!-- Generator: Adobe Illustrator 24.1.3, SVG Export Plug-In . SVG Version: 6.00 Build 0)  -->
<svg version="1.2" baseProfile="tiny" id="Layer_1" xmlns="http://www.w3.org/2000/svg" xmlns:xlink="http://www.w3.org/1999/xlink"
	 x="0px" y="0px" width='2.40in' height='2.40in' viewBox="0 0 172.8 172.8" overflow="visible" xml:space="preserve">
<path id="board" fill-rule="evenodd" fill="none" stroke="#000000" stroke-miterlimit="10" d="M7.2,7.42V165.6h158.18V7.42H7.2z"/>
<g id="copper1">
	<path id="connector14pad" fill-rule="evenodd" fill="none" stroke="#000000" stroke-miterlimit="10" d="M53.48,33.81
		c-2.5,0-4.54-2.03-4.54-4.54c0-2.5,2.03-4.54,4.54-4.54c2.5,0,4.54,2.03,4.54,4.54C58.01,31.78,55.98,33.81,53.48,33.81z"/>
	<path id="connector13pad" fill-rule="evenodd" fill="none" stroke="#000000" stroke-miterlimit="10" d="M35.98,48.5
		c-2.5,0-4.54-2.03-4.54-4.54c0-2.5,2.03-4.54,4.54-4.54c2.5,0,4.54,2.03,4.54,4.54C40.51,46.46,38.48,48.5,35.98,48.5z"/>
	<path id="connector12pad" fill-rule="evenodd" fill="none" stroke="#000000" stroke-miterlimit="10" d="M24.53,68.3
		c-2.5,0-4.54-2.03-4.54-4.54c0-2.5,2.03-4.54,4.54-4.54c2.5,0,4.54,2.03,4.54,4.54C29.07,66.26,27.04,68.3,24.53,68.3z"/>
	<path id="connector11pad" fill-rule="evenodd" fill="none" stroke="#000000" stroke-miterlimit="10" d="M20.79,90.69
		c-2.5,0-4.54-2.03-4.54-4.54c0-2.5,2.03-4.54,4.54-4.54c2.5,0,4.54,2.03,4.54,4.54C25.32,88.66,23.29,90.69,20.79,90.69z"/>
	<path id="connector10pad" fill-rule="evenodd" fill="none" stroke="#000000" stroke-miterlimit="10" d="M24.82,113.8
		c-2.5,0-4.54-2.03-4.54-4.54c0-2.5,2.03-4.54,4.54-4.54c2.5,0,4.54,2.03,4.54,4.54C29.35,111.77,27.32,113.8,24.82,113.8z"/>
	<path id="connector9pad" fill-rule="evenodd" fill="none" stroke="#000000" stroke-miterlimit="10" d="M36.7,133.67
		c-2.5,0-4.54-2.03-4.54-4.54c0-2.5,2.03-4.54,4.54-4.54c2.5,0,4.54,2.03,4.54,4.54C41.23,131.64,39.2,133.67,36.7,133.67z"/>
	<path id="connector8pad" fill-rule="evenodd" fill="none" stroke="#000000" stroke-miterlimit="10" d="M53.69,147.71
		c-2.5,0-4.54-2.03-4.54-4.54c0-2.5,2.03-4.54,4.54-4.54c2.5,0,4.54,2.03,4.54,4.54C58.23,145.68,56.2,147.71,53.69,147.71z"/>
	<path id="connector7pad" fill-rule="evenodd" fill="none" stroke="#000000" stroke-miterlimit="10" d="M119.21,147.71
		c-2.5,0-4.54-2.03-4.54-4.54c0-2.5,2.03-4.54,4.54-4.54c2.5,0,4.54,2.03,4.54,4.54C123.75,145.68,121.72,147.71,119.21,147.71z"/>
	<path id="connector6pad" fill-rule="evenodd" fill="none" stroke="#000000" stroke-miterlimit="10" d="M136.85,133.02
		c-2.5,0-4.54-2.03-4.54-4.54c0-2.5,2.03-4.54,4.54-4.54c2.5,0,4.54,2.03,4.54,4.54C141.39,130.99,139.36,133.02,136.85,133.02z"/>
	<path id="connector5pad" fill-rule="evenodd" fill="none" stroke="#000000" stroke-miterlimit="10" d="M148.23,113.08
		c-2.5,0-4.54-2.03-4.54-4.54c0-2.5,2.03-4.54,4.54-4.54c2.5,0,4.54,2.03,4.54,4.54C152.76,111.05,150.73,113.08,148.23,113.08z"/>
	<path id="connector4pad" fill-rule="evenodd" fill="none" stroke="#000000" stroke-miterlimit="10" d="M152.19,90.69
		c-2.5,0-4.54-2.03-4.54-4.54c0-2.5,2.03-4.54,4.54-4.54c2.5,0,4.54,2.03,4.54,4.54C156.72,88.66,154.69,90.69,152.19,90.69z"/>
	<path id="connector3pad" fill-rule="evenodd" fill="none" stroke="#000000" stroke-miterlimit="10" d="M148.23,68.22
		c-2.5,0-4.54-2.03-4.54-4.54c0-2.5,2.03-4.54,4.54-4.54c2.5,0,4.54,2.03,4.54,4.54C152.76,66.19,150.73,68.22,148.23,68.22z"/>
	<path id="connector2pad" fill-rule="evenodd" fill="none" stroke="#000000" stroke-miterlimit="10" d="M136.85,48.35
		c-2.5,0-4.54-2.03-4.54-4.54c0-2.5,2.03-4.54,4.54-4.54c2.5,0,4.54,2.03,4.54,4.54C141.39,46.32,139.36,48.35,136.85,48.35z"/>
	<path id="connector1pad" fill-rule="evenodd" fill="none" stroke="#000000" stroke-miterlimit="10" d="M119.21,33.59
		c-2.5,0-4.54-2.03-4.54-4.54c0-2.5,2.03-4.54,4.54-4.54c2.5,0,4.54,2.03,4.54,4.54C123.75,31.56,121.72,33.59,119.21,33.59z"/>
</g>
<line fill="none" stroke="#555555" stroke-width="0.7" stroke-miterlimit="10" x1="57.6" y1="7.2" x2="57.6" y2="0"/>
<line fill="none" stroke="#555555" stroke-width="0.7" stroke-miterlimit="10" x1="64.8" y1="7.2" x2="64.8" y2="0"/>
<line fill="none" stroke="#555555" stroke-width="0.7" stroke-miterlimit="10" x1="72" y1="7.2" x2="72" y2="0"/>
<line fill="none" stroke="#555555" stroke-width="0.7" stroke-miterlimit="10" x1="79.2" y1="7.2" x2="79.2" y2="0"/>
<line fill="none" stroke="#555555" stroke-width="0.7" stroke-miterlimit="10" x1="86.4" y1="7.2" x2="86.4" y2="0"/>
<line fill="none" stroke="#555555" stroke-width="0.7" stroke-miterlimit="10" x1="93.6" y1="7.2" x2="93.6" y2="0"/>
<line fill="none" stroke="#555555" stroke-width="0.7" stroke-miterlimit="10" x1="100.8" y1="7.2" x2="100.8" y2="0"/>
<line fill="none" stroke="#555555" stroke-width="0.7" stroke-miterlimit="10" x1="108" y1="7.2" x2="108" y2="0"/>
<text transform="matrix(1 0 0 1 58.8302 3.2602)" fill="#555555" font-family="'MyriadPro-Regular'" font-size="2.5px">1</text>
<line fill="none" stroke="#555555" stroke-width="0.7" stroke-miterlimit="10" x1="165.6" y1="108.02" x2="172.8" y2="108.02"/>
<text transform="matrix(1 0 0 1 166.9668 105.9745)" fill="#555555" font-family="'MyriadPro-Regular'" font-size="2.5px">9</text>
<line fill="none" stroke="#555555" stroke-width="0.7" stroke-miterlimit="10" x1="165.6" y1="115.22" x2="172.8" y2="115.22"/>
<text transform="matrix(1 0 0 1 166.9668 113.1746)" fill="#555555" font-family="'MyriadPro-Regular'" font-size="2.5px">10</text>
<line fill="none" stroke="#555555" stroke-width="0.7" stroke-miterlimit="10" x1="165.6" y1="122.42" x2="172.8" y2="122.42"/>
<text transform="matrix(1 0 0 1 166.9668 120.3745)" fill="#555555" font-family="'MyriadPro-Regular'" font-size="2.5px">11</text>
<line fill="none" stroke="#555555" stroke-width="0.7" stroke-miterlimit="10" x1="165.6" y1="129.62" x2="172.8" y2="129.62"/>
<text transform="matrix(1 0 0 1 166.9668 127.5745)" fill="#555555" font-family="'MyriadPro-Regular'" font-size="2.5px">12</text>
<line fill="none" stroke="#555555" stroke-width="0.7" stroke-miterlimit="10" x1="165.6" y1="136.82" x2="172.8" y2="136.82"/>
<text transform="matrix(1 0 0 1 166.9668 134.7745)" fill="#555555" font-family="'MyriadPro-Regular'" font-size="2.5px">13</text>
<line fill="none" stroke="#555555" stroke-width="0.7" stroke-miterlimit="10" x1="165.6" y1="144.02" x2="172.8" y2="144.02"/>
<text transform="matrix(1 0 0 1 166.9668 141.9745)" fill="#555555" font-family="'MyriadPro-Regular'" font-size="2.5px">14</text>
<line fill="none" stroke="#555555" stroke-width="0.7" stroke-miterlimit="10" x1="165.6" y1="151.22" x2="172.8" y2="151.22"/>
<text transform="matrix(1 0 0 1 166.9668 149.1745)" fill="#555555" font-family="'MyriadPro-Regular'" font-size="2.5px">15</text>
<line fill="none" stroke="#555555" stroke-width="0.7" stroke-miterlimit="10" x1="165.6" y1="158.42" x2="172.8" y2="158.42"/>
<text transform="matrix(1 0 0 1 166.9668 156.3745)" fill="#555555" font-family="'MyriadPro-Regular'" font-size="2.5px">16</text>
<line fill="none" stroke="#555555" stroke-width="0.7" stroke-miterlimit="10" x1="0" y1="108" x2="7.2" y2="108"/>
<text transform="matrix(1 0 0 1 2.3921 105.9501)" fill="#555555" font-family="'MyriadPro-Regular'" font-size="2.5px">28</text>
<line fill="none" stroke="#555555" stroke-width="0.7" stroke-miterlimit="10" x1="0" y1="100.8" x2="7.2" y2="100.8"/>
<text transform="matrix(1 0 0 1 2.3921 98.7501)" fill="#555555" font-family="'MyriadPro-Regular'" font-size="2.5px">29</text>
<line fill="none" stroke="#555555" stroke-width="0.7" stroke-miterlimit="10" x1="0" y1="93.6" x2="7.2" y2="93.6"/>
<text transform="matrix(1 0 0 1 2.3921 91.5501)" fill="#555555" font-family="'MyriadPro-Regular'" font-size="2.5px">30</text>
<line fill="none" stroke="#555555" stroke-width="0.7" stroke-miterlimit="10" x1="0" y1="86.4" x2="7.2" y2="86.4"/>
<text transform="matrix(1 0 0 1 2.3921 84.3501)" fill="#555555" font-family="'MyriadPro-Regular'" font-size="2.5px">31</text>
<line fill="none" stroke="#555555" stroke-width="0.7" stroke-miterlimit="10" x1="0" y1="79.2" x2="7.2" y2="79.2"/>
<text transform="matrix(1 0 0 1 2.3921 77.1501)" fill="#555555" font-family="'MyriadPro-Regular'" font-size="2.5px">32</text>
<line fill="none" stroke="#555555" stroke-width="0.7" stroke-miterlimit="10" x1="0" y1="115.2" x2="7.2" y2="115.2"/>
<text transform="matrix(1 0 0 1 2.3921 113.1501)" fill="#555555" font-family="'MyriadPro-Regular'" font-size="2.5px">27</text>
<line fill="none" stroke="#555555" stroke-width="0.7" stroke-miterlimit="10" x1="0" y1="122.4" x2="7.2" y2="122.4"/>
<text transform="matrix(1 0 0 1 2.3921 120.3501)" fill="#555555" font-family="'MyriadPro-Regular'" font-size="2.5px">26</text>
<line fill="none" stroke="#555555" stroke-width="0.7" stroke-miterlimit="10" x1="0" y1="129.6" x2="7.2" y2="129.6"/>
<text transform="matrix(1 0 0 1 2.3921 127.55)" fill="#555555" font-family="'MyriadPro-Regular'" font-size="2.5px">25</text>
<line fill="none" stroke="#555555" stroke-width="0.7" stroke-miterlimit="10" x1="0" y1="136.8" x2="7.2" y2="136.8"/>
<text transform="matrix(1 0 0 1 2.3921 134.75)" fill="#555555" font-family="'MyriadPro-Regular'" font-size="2.5px">24</text>
<line fill="none" stroke="#555555" stroke-width="0.7" stroke-miterlimit="10" x1="0" y1="144" x2="7.2" y2="144"/>
<text transform="matrix(1 0 0 1 2.3921 141.95)" fill="#555555" font-family="'MyriadPro-Regular'" font-size="2.5px">23</text>
<line fill="none" stroke="#555555" stroke-width="0.7" stroke-miterlimit="10" x1="0" y1="151.2" x2="7.2" y2="151.2"/>
<text transform="matrix(1 0 0 1 2.3921 149.15)" fill="#555555" font-family="'MyriadPro-Regular'" font-size="2.5px">22</text>
<line fill="none" stroke="#555555" stroke-width="0.7" stroke-miterlimit="10" x1="0" y1="158.4" x2="7.2" y2="158.4"/>
<text transform="matrix(1 0 0 1 2.3921 156.35)" fill="#555555" font-family="'MyriadPro-Regular'" font-size="2.5px">21</text>
<text transform="matrix(1 0 0 1 66.096 3.2602)" fill="#555555" font-family="'MyriadPro-Regular'" font-size="2.5px">2</text>
<text transform="matrix(1 0 0 1 73.3619 3.2602)" fill="#555555" font-family="'MyriadPro-Regular'" font-size="2.5px">3</text>
<text transform="matrix(1 0 0 1 80.6278 3.2602)" fill="#555555" font-family="'MyriadPro-Regular'" font-size="2.5px">4</text>
<text transform="matrix(1 0 0 1 87.8937 3.2602)" fill="#555555" font-family="'MyriadPro-Regular'" font-size="2.5px">5</text>
<text transform="matrix(1 0 0 1 95.1595 3.2602)" fill="#555555" font-family="'MyriadPro-Regular'" font-size="2.5px">6</text>
<line fill="none" stroke="#555555" stroke-width="0.7" stroke-miterlimit="10" x1="79.24" y1="172.8" x2="79.24" y2="165.6"/>
<line fill="none" stroke="#555555" stroke-width="0.7" stroke-miterlimit="10" x1="86.44" y1="172.8" x2="86.44" y2="165.6"/>
<line fill="none" stroke="#555555" stroke-width="0.7" stroke-miterlimit="10" x1="93.64" y1="172.8" x2="93.64" y2="165.6"/>
<line fill="none" stroke="#555555" stroke-width="0.7" stroke-miterlimit="10" x1="100.84" y1="172.8" x2="100.84" y2="165.6"/>
<text transform="matrix(1 0 0 1 80.5971 168.8602)" fill="#555555" font-family="'MyriadPro-Regular'" font-size="2.5px">20</text>
<text transform="matrix(1 0 0 1 87.863 168.8602)" fill="#555555" font-family="'MyriadPro-Regular'" font-size="2.5px">19</text>
<text transform="matrix(1 0 0 1 95.1288 168.8602)" fill="#555555" font-family="'MyriadPro-Regular'" font-size="2.5px">18</text>
<text transform="matrix(1 0 0 1 102.3947 168.8602)" fill="#555555" font-family="'MyriadPro-Regular'" font-size="2.5px">17</text>
<text transform="matrix(1 0 0 1 102.4254 3.2602)" fill="#555555" font-family="'MyriadPro-Regular'" font-size="2.5px">7</text>
<text transform="matrix(1 0 0 1 109.44 3.2602)" fill="#555555" font-family="'MyriadPro-Regular'" font-size="2.5px">8</text>
<text transform="matrix(1 0 0 1 55.4126 11.766)" fill="#555555" font-family="'MyriadPro-Regular'" font-size="3.5px">A0</text>
<text transform="matrix(1 0 0 1 127.7165 124.6005)" fill="#555555" font-family="'MyriadPro-Regular'" font-size="3.5px">A0</text>
<text transform="matrix(1 0 0 1 155.4966 151.2245)" fill="#555555" font-family="'MyriadPro-Regular'" font-size="3.5px">3.3V</text>
<text transform="matrix(1 0 0 1 29.3544 86.5075)" fill="#555555" font-family="'MyriadPro-Regular'" font-size="3.5px">3.3V</text>
<text transform="matrix(1 0 0 1 105 29.2722)" fill="#555555" font-family="'MyriadPro-Regular'" font-size="3.5px">3.3V</text>
<text transform="matrix(1 0 0 1 85.7522 160.9306)" fill="#555555" font-family="'MyriadPro-Regular'" font-size="3.5px">VOUT</text>
<text transform="matrix(1 0 0 1 106.9227 138.6401)" fill="#555555" font-family="'MyriadPro-Regular'" font-size="3.5px">VOUT</text>
<text transform="matrix(1 0 0 1 11.7016 151.2005)" fill="#555555" font-family="'MyriadPro-Regular'" font-size="3.5px">GND</text>
<text transform="matrix(1 0 0 1 62.8555 29.2718)" fill="#555555" font-family="'MyriadPro-Regular'" font-size="3.5px">GND</text>
<text transform="matrix(1 0 0 1 138.1972 86.5079)" fill="#555555" font-family="'MyriadPro-Regular'" font-size="3.5px">GND</text>
<text transform="matrix(1 0 0 1 58.2263 138.6402)" fill="#555555" font-family="'MyriadPro-Regular'" font-size="3.5px">GND</text>
<text transform="matrix(1 0 0 1 62.8556 11.766)" fill="#555555" font-family="'MyriadPro-Regular'" font-size="3.5px">A1</text>
<text transform="matrix(1 0 0 1 138.1973 107.5005)" fill="#555555" font-family="'MyriadPro-Regular'" font-size="3.5px">A1</text>
<text transform="matrix(1 0 0 1 70.2001 11.766)" fill="#555555" font-family="'MyriadPro-Regular'" font-size="3.5px">A2</text>
<text transform="matrix(1 0 0 1 136.8509 65.2726)" fill="#555555" font-family="'MyriadPro-Regular'" font-size="3.5px">A2</text>
<text transform="matrix(1 0 0 1 77.5446 11.766)" fill="#555555" font-family="'MyriadPro-Regular'" font-size="3.5px">A3</text>
<text transform="matrix(1 0 0 1 125.5899 45.222)" fill="#555555" font-family="'MyriadPro-Regular'" font-size="3.5px">A3</text>
<text transform="matrix(1 0 0 1 84.8891 11.766)" fill="#555555" font-family="'MyriadPro-Regular'" font-size="3.5px">A4</text>
<text transform="matrix(1 0 0 1 44.1722 45.222)" fill="#555555" font-family="'MyriadPro-Regular'" font-size="3.5px">A4</text>
<text transform="matrix(1 0 0 1 92.2335 11.766)" fill="#555555" font-family="'MyriadPro-Regular'" font-size="3.5px">A5</text>
<text transform="matrix(1 0 0 1 32.1637 65.2726)" fill="#555555" font-family="'MyriadPro-Regular'" font-size="3.5px">A5</text>
<text transform="matrix(1 0 0 1 99.578 11.766)" fill="#555555" font-family="'MyriadPro-Regular'" font-size="3.5px">A6</text>
<text transform="matrix(1 0 0 1 32.1635 108.5439)" fill="#555555" font-family="'MyriadPro-Regular'" font-size="3.5px">A6</text>
<text transform="matrix(1 0 0 1 106.9225 11.766)" fill="#555555" font-family="'MyriadPro-Regular'" font-size="3.5px">A7</text>
<text transform="matrix(1 0 0 1 44.1722 124.6005)" fill="#555555" font-family="'MyriadPro-Regular'" font-size="3.5px">A7</text>
<rect x="57.6" y="76.51" fill-rule="evenodd" fill="none" width="65.01" height="10.21"/>
<text transform="matrix(1 0 0 1 75.6375 79.5306)" font-family="'MyriadPro-Regular'" font-size="4.25px">G</text>
<text transform="matrix(1 0 0 1 78.4173 79.5306)" font-family="'MyriadPro-Regular'" font-size="4.25px">a</text>
<text transform="matrix(1 0 0 1 80.4486 79.5306)" font-family="'MyriadPro-Regular'" font-size="4.25px">t</text>
<text transform="matrix(1 0 0 1 81.8299 79.5306)" font-family="'MyriadPro-Regular'" font-size="4.25px">o</text>
<text transform="matrix(1 0 0 1 84.1629 79.5306)" font-family="'MyriadPro-Regular'" font-size="4.25px">r</text>
<text transform="matrix(1 0 0 1 85.5526 79.5306)" font-family="'MyriadPro-Regular'" font-size="4.25px"> </text>
<text transform="matrix(1 0 0 1 86.4534 79.5306)" font-family="'MyriadPro-Regular'" font-size="4.25px">E</text>
<text transform="matrix(1 0 0 1 88.5443 79.5306)" font-family="'MyriadPro-Regular'" font-size="4.25px">l</text>
<text transform="matrix(1 0 0 1 89.5472 79.5306)" font-family="'MyriadPro-Regular'" font-size="4.25px">i</text>
<text transform="matrix(1 0 0 1 90.5418 79.5306)" font-family="'MyriadPro-Regular'" font-size="4.25px">m</text>
<text transform="matrix(1 0 0 1 94.0863 79.5306)" font-family="'MyriadPro-Regular'" font-size="4.25px">i</text>
<text transform="matrix(1 0 0 1 95.0809 79.5306)" font-family="'MyriadPro-Regular'" font-size="4.25px">n</text>
<text transform="matrix(1 0 0 1 97.4398 79.5306)" font-family="'MyriadPro-Regular'" font-size="4.25px">a</text>
<text transform="matrix(1 0 0 1 99.471 79.5306)" font-family="'MyriadPro-Regular'" font-size="4.25px">t</text>
<text transform="matrix(1 0 0 1 100.8524 79.5306)" font-family="'MyriadPro-Regular'" font-size="4.25px">o</text>
<text transform="matrix(1 0 0 1 103.1854 79.5306)" font-family="'MyriadPro-Regular'" font-size="4.25px">r</text>
<text transform="matrix(1 0 0 1 70.8582 84.6302)" font-family="'MyriadPro-Regular'" font-size="4.25px">f</text>
<text transform="matrix(1 0 0 1 72.0443 84.6302)" font-family="'MyriadPro-Regular'" font-size="4.25px">o</text>
<text transform="matrix(1 0 0 1 74.3773 84.6302)" font-family="'MyriadPro-Regular'" font-size="4.25px">r</text>
<text transform="matrix(1 0 0 1 75.7669 84.6302)" font-family="'MyriadPro-Regular'" font-size="4.25px"> </text>
<text transform="matrix(1 0 0 1 76.6678 84.6302)" font-family="'MyriadPro-Regular'" font-size="4.25px">C</text>
<text transform="matrix(1 0 0 1 79.1199 84.6302)" font-family="'MyriadPro-Regular'" font-size="4.25px">i</text>
<text transform="matrix(1 0 0 1 80.1146 84.6302)" font-family="'MyriadPro-Regular'" font-size="4.25px">r</text>
<text transform="matrix(1 0 0 1 81.4617 84.6302)" font-family="'MyriadPro-Regular'" font-size="4.25px">c</text>
<text transform="matrix(1 0 0 1 83.3655 84.6302)" font-family="'MyriadPro-Regular'" font-size="4.25px">u</text>
<text transform="matrix(1 0 0 1 85.7073 84.6302)" font-family="'MyriadPro-Regular'" font-size="4.25px">i</text>
<text transform="matrix(1 0 0 1 86.702 84.6302)" font-family="'MyriadPro-Regular'" font-size="4.25px">t</text>
<text transform="matrix(1 0 0 1 88.1087 84.6302)" font-family="'MyriadPro-Regular'" font-size="4.25px"> </text>
<text transform="matrix(1 0 0 1 89.0096 84.6302)" font-family="'MyriadPro-Regular'" font-size="4.25px">P</text>
<text transform="matrix(1 0 0 1 91.2493 84.6302)" font-family="'MyriadPro-Regular'" font-size="4.25px">l</text>
<text transform="matrix(1 0 0 1 92.2523 84.6302)" font-family="'MyriadPro-Regular'" font-size="4.25px">a</text>
<text transform="matrix(1 0 0 1 94.2664 84.6302)" font-family="'MyriadPro-Regular'" font-size="4.25px">y</text>
<text transform="matrix(1 0 0 1 96.2254 84.6302)" font-family="'MyriadPro-Regular'" font-size="4.25px">g</text>
<text transform="matrix(1 0 0 1 98.5755 84.6302)" font-family="'MyriadPro-Regular'" font-size="4.25px">r</text>
<text transform="matrix(1 0 0 1 99.9227 84.6302)" font-family="'MyriadPro-Regular'" font-size="4.25px">o</text>
<text transform="matrix(1 0 0 1 102.2557 84.6302)" font-family="'MyriadPro-Regular'" font-size="4.25px">u</text>
<text transform="matrix(1 0 0 1 104.5975 84.6302)" font-family="'MyriadPro-Regular'" font-size="4.25px">n</text>
<text transform="matrix(1 0 0 1 106.9564 84.6302)" font-family="'MyriadPro-Regular'" font-size="4.25px">d</text>
</svg>
