<?xml version="1.0" encoding="utf-8"?>
<!-- Generator: Adobe Illustrator 24.1.3, SVG Export Plug-In . SVG Version: 6.00 Build 0)  -->
<svg version="1.2" baseProfile="tiny" id="Layer_1" xmlns="http://www.w3.org/2000/svg" xmlns:xlink="http://www.w3.org/1999/xlink"
	 x="0px" y="0px" width='2.20in' height='3.38in' viewBox="0 0 158.18 243.22" overflow="visible" xml:space="preserve">
<path id="board" fill-rule="evenodd" fill="none" stroke="#000000" stroke-miterlimit="10" d="M0,0v243.22h158.18V0H0z
	 M140.92,43.65c2.5,0,4.54,2.03,4.54,4.54c0,2.5-2.03,4.54-4.54,4.54c-2.5,0-4.54-2.03-4.54-4.54
	C136.38,45.69,138.41,43.65,140.92,43.65z M149.41,70.65c0,2.5-2.03,4.54-4.54,4.54c-2.5,0-4.54-2.03-4.54-4.54
	c0-2.5,2.03-4.54,4.54-4.54C147.38,66.12,149.41,68.15,149.41,70.65z M17.22,43.73c2.5,0,4.54,2.03,4.54,4.54
	c0,2.5-2.03,4.54-4.54,4.54c-2.5,0-4.54-2.03-4.54-4.54C12.69,45.76,14.72,43.73,17.22,43.73z M18.01,70.65
	c0,2.5-2.03,4.54-4.54,4.54c-2.5,0-4.54-2.03-4.54-4.54c0-2.5,2.03-4.54,4.54-4.54C15.98,66.12,18.01,68.15,18.01,70.65z M6.78,8.66
	c2.5,0,4.54,2.03,4.54,4.54c0,2.5-2.03,4.54-4.54,4.54c-2.5,0-4.54-2.03-4.54-4.54C2.25,10.69,4.28,8.66,6.78,8.66z M6.78,233.73
	c-2.5,0-4.54-2.03-4.54-4.54c0-2.5,2.03-4.54,4.54-4.54c2.5,0,4.54,2.03,4.54,4.54C11.32,231.7,9.29,233.73,6.78,233.73z
	 M17.51,98.3c-2.5,0-4.54-2.03-4.54-4.54c0-2.5,2.03-4.54,4.54-4.54c2.5,0,4.54,2.03,4.54,4.54C22.05,96.27,20.02,98.3,17.51,98.3z
	 M28.67,23.93c2.5,0,4.54,2.03,4.54,4.54c0,2.5-2.03,4.54-4.54,4.54c-2.5,0-4.54-2.03-4.54-4.54
	C24.14,25.96,26.17,23.93,28.67,23.93z M29.39,118.17c-2.5,0-4.54-2.03-4.54-4.54c0-2.5,2.03-4.54,4.54-4.54
	c2.5,0,4.54,2.03,4.54,4.54C33.93,116.14,31.9,118.17,29.39,118.17z M46.17,9.24c2.5,0,4.54,2.03,4.54,4.54
	c0,2.5-2.03,4.54-4.54,4.54c-2.5,0-4.54-2.03-4.54-4.54C41.63,11.27,43.66,9.24,46.17,9.24z M46.38,132.21
	c-2.5,0-4.54-2.03-4.54-4.54c0-2.5,2.03-4.54,4.54-4.54c2.5,0,4.54,2.03,4.54,4.54C50.92,130.18,48.89,132.21,46.38,132.21z
	 M111.9,132.21c-2.5,0-4.54-2.03-4.54-4.54c0-2.5,2.03-4.54,4.54-4.54c2.5,0,4.54,2.03,4.54,4.54
	C116.44,130.18,114.41,132.21,111.9,132.21z M111.9,18.09c-2.5,0-4.54-2.03-4.54-4.54c0-2.5,2.03-4.54,4.54-4.54
	c2.5,0,4.54,2.03,4.54,4.54C116.44,16.06,114.41,18.09,111.9,18.09z M129.54,117.53c-2.5,0-4.54-2.03-4.54-4.54
	c0-2.5,2.03-4.54,4.54-4.54c2.5,0,4.54,2.03,4.54,4.54C134.08,115.49,132.05,117.53,129.54,117.53z M129.54,32.85
	c-2.5,0-4.54-2.03-4.54-4.54c0-2.5,2.03-4.54,4.54-4.54c2.5,0,4.54,2.03,4.54,4.54C134.08,30.82,132.05,32.85,129.54,32.85z
	 M140.92,97.58c-2.5,0-4.54-2.03-4.54-4.54c0-2.5,2.03-4.54,4.54-4.54c2.5,0,4.54,2.03,4.54,4.54
	C145.45,95.55,143.42,97.58,140.92,97.58z M150.78,233.73c-2.5,0-4.54-2.03-4.54-4.54c0-2.5,2.03-4.54,4.54-4.54
	c2.5,0,4.54,2.03,4.54,4.54C155.32,231.7,153.29,233.73,150.78,233.73z M150.78,17.73c-2.5,0-4.54-2.03-4.54-4.54
	c0-2.5,2.03-4.54,4.54-4.54c2.5,0,4.54,2.03,4.54,4.54C155.32,15.7,153.29,17.73,150.78,17.73z"/>
<g id="copper1">
	<path id="connector14pad" fill-rule="evenodd" fill="#9A916C" d="M46.22,5.89c-4.38,0-7.94,3.55-7.94,7.94s3.55,7.94,7.94,7.94
		s7.94-3.55,7.94-7.94S50.61,5.89,46.22,5.89z M46.17,18.31c-2.5,0-4.54-2.03-4.54-4.54c0-2.5,2.03-4.54,4.54-4.54
		c2.5,0,4.54,2.03,4.54,4.54C50.7,16.28,48.67,18.31,46.17,18.31z"/>
	<path id="connector13pad" fill-rule="evenodd" fill="#9A916C" d="M28.73,20.58c-4.38,0-7.94,3.55-7.94,7.94
		c0,4.38,3.55,7.94,7.94,7.94s7.94-3.55,7.94-7.94C36.66,24.13,33.11,20.58,28.73,20.58z M28.67,33c-2.5,0-4.54-2.03-4.54-4.54
		c0-2.5,2.03-4.54,4.54-4.54c2.5,0,4.54,2.03,4.54,4.54C33.21,30.97,31.18,33,28.67,33z"/>
	<path id="connector12pad" fill-rule="evenodd" fill="#9A916C" d="M17.28,40.38c-4.38,0-7.94,3.55-7.94,7.94s3.55,7.94,7.94,7.94
		c4.38,0,7.94-3.55,7.94-7.94S21.66,40.38,17.28,40.38z M17.22,52.8c-2.5,0-4.54-2.03-4.54-4.54c0-2.5,2.03-4.54,4.54-4.54
		c2.5,0,4.54,2.03,4.54,4.54C21.76,50.77,19.73,52.8,17.22,52.8z"/>
	<path id="connector11pad" fill-rule="evenodd" fill="#9A916C" d="M13.54,62.77c-4.38,0-7.94,3.55-7.94,7.94s3.55,7.94,7.94,7.94
		s7.94-3.55,7.94-7.94S17.92,62.77,13.54,62.77z M13.48,75.19c-2.5,0-4.54-2.03-4.54-4.54c0-2.5,2.03-4.54,4.54-4.54
		c2.5,0,4.54,2.03,4.54,4.54C18.01,73.16,15.98,75.19,13.48,75.19z"/>
	<path id="connector10pad" fill-rule="evenodd" fill="#9A916C" d="M17.57,85.88c-4.38,0-7.94,3.55-7.94,7.94s3.55,7.94,7.94,7.94
		s7.94-3.55,7.94-7.94S21.95,85.88,17.57,85.88z M17.51,98.3c-2.5,0-4.54-2.03-4.54-4.54c0-2.5,2.03-4.54,4.54-4.54
		c2.5,0,4.54,2.03,4.54,4.54C22.05,96.27,20.02,98.3,17.51,98.3z"/>
	<path id="connector9pad" fill-rule="evenodd" fill="#9A916C" d="M29.45,105.75c-4.38,0-7.94,3.55-7.94,7.94s3.55,7.94,7.94,7.94
		s7.94-3.55,7.94-7.94S33.83,105.75,29.45,105.75z M29.39,118.17c-2.5,0-4.54-2.03-4.54-4.54c0-2.5,2.03-4.54,4.54-4.54
		c2.5,0,4.54,2.03,4.54,4.54C33.93,116.14,31.9,118.17,29.39,118.17z"/>
	<path id="connector8pad" fill-rule="evenodd" fill="#9A916C" d="M46.44,119.79c-4.38,0-7.94,3.55-7.94,7.94
		c0,4.38,3.55,7.94,7.94,7.94s7.94-3.55,7.94-7.94C54.38,123.34,50.82,119.79,46.44,119.79z M46.38,132.21
		c-2.5,0-4.54-2.03-4.54-4.54c0-2.5,2.03-4.54,4.54-4.54c2.5,0,4.54,2.03,4.54,4.54C50.92,130.18,48.89,132.21,46.38,132.21z"/>
	<path id="connector7pad" fill-rule="evenodd" fill="#9A916C" d="M111.96,119.79c-4.38,0-7.94,3.55-7.94,7.94
		c0,4.38,3.55,7.94,7.94,7.94s7.94-3.55,7.94-7.94C119.9,123.34,116.34,119.79,111.96,119.79z M111.9,132.21
		c-2.5,0-4.54-2.03-4.54-4.54c0-2.5,2.03-4.54,4.54-4.54c2.5,0,4.54,2.03,4.54,4.54C116.44,130.18,114.41,132.21,111.9,132.21z"/>
	<path id="connector6pad" fill-rule="evenodd" fill="#9A916C" d="M129.6,105.1c-4.38,0-7.94,3.55-7.94,7.94s3.55,7.94,7.94,7.94
		c4.38,0,7.94-3.55,7.94-7.94S133.98,105.1,129.6,105.1z M129.54,117.53c-2.5,0-4.54-2.03-4.54-4.54c0-2.5,2.03-4.54,4.54-4.54
		c2.5,0,4.54,2.03,4.54,4.54C134.08,115.49,132.05,117.53,129.54,117.53z"/>
	<path id="connector5pad" fill-rule="evenodd" fill="#9A916C" d="M140.98,85.16c-4.38,0-7.94,3.55-7.94,7.94s3.55,7.94,7.94,7.94
		s7.94-3.55,7.94-7.94S145.36,85.16,140.98,85.16z M140.92,97.58c-2.5,0-4.54-2.03-4.54-4.54c0-2.5,2.03-4.54,4.54-4.54
		c2.5,0,4.54,2.03,4.54,4.54C145.45,95.55,143.42,97.58,140.92,97.58z"/>
	<path id="connector4pad" fill-rule="evenodd" fill="#9A916C" d="M144.94,62.77c-4.38,0-7.94,3.55-7.94,7.94s3.55,7.94,7.94,7.94
		s7.94-3.55,7.94-7.94S149.32,62.77,144.94,62.77z M144.88,75.19c-2.5,0-4.54-2.03-4.54-4.54c0-2.5,2.03-4.54,4.54-4.54
		c2.5,0,4.54,2.03,4.54,4.54C149.41,73.16,147.38,75.19,144.88,75.19z"/>
	<path id="connector3pad" fill-rule="evenodd" fill="#9A916C" d="M140.98,40.3c-4.38,0-7.94,3.55-7.94,7.94s3.55,7.94,7.94,7.94
		s7.94-3.55,7.94-7.94S145.36,40.3,140.98,40.3z M140.92,52.73c-2.5,0-4.54-2.03-4.54-4.54c0-2.5,2.03-4.54,4.54-4.54
		c2.5,0,4.54,2.03,4.54,4.54C145.45,50.69,143.42,52.73,140.92,52.73z"/>
	<path id="connector2pad" fill-rule="evenodd" fill="#9A916C" d="M129.6,20.43c-4.38,0-7.94,3.55-7.94,7.94s3.55,7.94,7.94,7.94
		c4.38,0,7.94-3.55,7.94-7.94S133.98,20.43,129.6,20.43z M129.54,32.85c-2.5,0-4.54-2.03-4.54-4.54c0-2.5,2.03-4.54,4.54-4.54
		c2.5,0,4.54,2.03,4.54,4.54C134.08,30.82,132.05,32.85,129.54,32.85z"/>
	<path id="connector1pad" fill-rule="evenodd" fill="#9A916C" d="M111.96,5.67c-4.38,0-7.94,3.55-7.94,7.94s3.55,7.94,7.94,7.94
		s7.94-3.55,7.94-7.94S116.34,5.67,111.96,5.67z M111.9,18.09c-2.5,0-4.54-2.03-4.54-4.54c0-2.5,2.03-4.54,4.54-4.54
		c2.5,0,4.54,2.03,4.54,4.54C116.44,16.06,114.41,18.09,111.9,18.09z"/>

		<circle fill-rule="evenodd" fill="none" stroke="#F7BD13" stroke-width="1.4173" stroke-miterlimit="10" cx="21.5" cy="174.02" r="2.13"/>

		<circle fill-rule="evenodd" fill="none" stroke="#F7BD13" stroke-width="1.4173" stroke-miterlimit="10" cx="28.62" cy="174.02" r="2.13"/>

		<circle fill-rule="evenodd" fill="none" stroke="#F7BD13" stroke-width="1.4173" stroke-miterlimit="10" cx="35.9" cy="174.02" r="2.13"/>

		<circle fill-rule="evenodd" fill="none" stroke="#F7BD13" stroke-width="1.4173" stroke-miterlimit="10" cx="42.98" cy="174.02" r="2.13"/>

		<circle fill-rule="evenodd" fill="none" stroke="#F7BD13" stroke-width="1.4173" stroke-miterlimit="10" cx="50.18" cy="174.02" r="2.13"/>

		<circle fill-rule="evenodd" fill="none" stroke="#F7BD13" stroke-width="1.4173" stroke-miterlimit="10" cx="57.38" cy="174.02" r="2.13"/>

		<circle fill-rule="evenodd" fill="none" stroke="#F7BD13" stroke-width="1.4173" stroke-miterlimit="10" cx="64.7" cy="174.02" r="2.13"/>

		<circle fill-rule="evenodd" fill="none" stroke="#F7BD13" stroke-width="1.4173" stroke-miterlimit="10" cx="71.89" cy="174.02" r="2.13"/>

		<circle fill-rule="evenodd" fill="none" stroke="#F7BD13" stroke-width="1.4173" stroke-miterlimit="10" cx="21.5" cy="199.19" r="2.13"/>

		<circle fill-rule="evenodd" fill="none" stroke="#F7BD13" stroke-width="1.4173" stroke-miterlimit="10" cx="28.62" cy="199.19" r="2.13"/>

		<circle fill-rule="evenodd" fill="none" stroke="#F7BD13" stroke-width="1.4173" stroke-miterlimit="10" cx="35.9" cy="199.19" r="2.13"/>

		<circle fill-rule="evenodd" fill="none" stroke="#F7BD13" stroke-width="1.4173" stroke-miterlimit="10" cx="42.98" cy="199.19" r="2.13"/>

		<circle fill-rule="evenodd" fill="none" stroke="#F7BD13" stroke-width="1.4173" stroke-miterlimit="10" cx="50.18" cy="199.19" r="2.13"/>

		<circle fill-rule="evenodd" fill="none" stroke="#F7BD13" stroke-width="1.4173" stroke-miterlimit="10" cx="57.38" cy="199.19" r="2.13"/>

		<circle fill-rule="evenodd" fill="none" stroke="#F7BD13" stroke-width="1.4173" stroke-miterlimit="10" cx="64.7" cy="199.19" r="2.13"/>

		<circle fill-rule="evenodd" fill="none" stroke="#F7BD13" stroke-width="1.4173" stroke-miterlimit="10" cx="71.89" cy="199.19" r="2.13"/>

		<circle fill-rule="evenodd" fill="none" stroke="#F7BD13" stroke-width="1.4173" stroke-miterlimit="10" cx="21.5" cy="223.67" r="2.13"/>

		<circle fill-rule="evenodd" fill="none" stroke="#F7BD13" stroke-width="1.4173" stroke-miterlimit="10" cx="28.62" cy="223.67" r="2.13"/>

		<circle fill-rule="evenodd" fill="none" stroke="#F7BD13" stroke-width="1.4173" stroke-miterlimit="10" cx="35.9" cy="223.67" r="2.13"/>

		<circle fill-rule="evenodd" fill="none" stroke="#F7BD13" stroke-width="1.4173" stroke-miterlimit="10" cx="42.98" cy="223.67" r="2.13"/>

		<circle fill-rule="evenodd" fill="none" stroke="#F7BD13" stroke-width="1.4173" stroke-miterlimit="10" cx="50.18" cy="223.67" r="2.13"/>

		<circle fill-rule="evenodd" fill="none" stroke="#F7BD13" stroke-width="1.4173" stroke-miterlimit="10" cx="57.38" cy="223.67" r="2.13"/>

		<circle fill-rule="evenodd" fill="none" stroke="#F7BD13" stroke-width="1.4173" stroke-miterlimit="10" cx="64.7" cy="223.67" r="2.13"/>

		<circle fill-rule="evenodd" fill="none" stroke="#F7BD13" stroke-width="1.4173" stroke-miterlimit="10" cx="71.89" cy="223.67" r="2.13"/>

		<circle fill-rule="evenodd" fill="none" stroke="#F7BD13" stroke-width="1.4173" stroke-miterlimit="10" cx="78.98" cy="223.67" r="2.13"/>

		<circle fill-rule="evenodd" fill="none" stroke="#F7BD13" stroke-width="1.4173" stroke-miterlimit="10" cx="86.07" cy="223.67" r="2.13"/>

		<circle fill-rule="evenodd" fill="none" stroke="#F7BD13" stroke-width="1.4173" stroke-miterlimit="10" cx="93.17" cy="223.67" r="2.13"/>

		<circle fill-rule="evenodd" fill="none" stroke="#F7BD13" stroke-width="1.4173" stroke-miterlimit="10" cx="100.26" cy="223.68" r="2.13"/>

		<circle fill-rule="evenodd" fill="none" stroke="#F7BD13" stroke-width="1.4173" stroke-miterlimit="10" cx="118.71" cy="199.19" r="2.13"/>

		<circle fill-rule="evenodd" fill="none" stroke="#F7BD13" stroke-width="1.4173" stroke-miterlimit="10" cx="125.91" cy="199.19" r="2.13"/>

		<circle fill-rule="evenodd" fill="none" stroke="#F7BD13" stroke-width="1.4173" stroke-miterlimit="10" cx="133.22" cy="199.19" r="2.13"/>

		<circle fill-rule="evenodd" fill="none" stroke="#F7BD13" stroke-width="1.4173" stroke-miterlimit="10" cx="140.42" cy="199.19" r="2.13"/>
</g>
</svg>
