G04 MADE WITH FRITZING*
G04 WWW.FRITZING.ORG*
G04 DOUBLE SIDED*
G04 HOLES PLATED*
G04 CONTOUR ON CENTER OF CONTOUR VECTOR*
%ASAXBY*%
%FSLAX23Y23*%
%MOIN*%
%OFA0B0*%
%SFA1.0B1.0*%
%ADD10C,0.230472*%
%ADD11C,0.135984*%
%ADD12C,0.049370*%
%ADD13R,0.061181X0.151823*%
%LNMASK1*%
G90*
G70*
G54D10*
X646Y3190D03*
G54D11*
X2099Y198D03*
X2099Y3198D03*
X99Y198D03*
G54D10*
X248Y2079D03*
X649Y1608D03*
X244Y2711D03*
X2017Y2400D03*
X403Y2986D03*
X1804Y2988D03*
G54D11*
X99Y3198D03*
G54D10*
X413Y1803D03*
G54D12*
X402Y199D03*
G54D10*
X1559Y3193D03*
X1962Y2712D03*
X192Y2400D03*
X1804Y1812D03*
G54D12*
X1402Y199D03*
G54D10*
X1559Y1608D03*
X1962Y2089D03*
G54D13*
X1652Y541D03*
X1752Y682D03*
X1852Y541D03*
X1952Y682D03*
X302Y889D03*
X402Y1031D03*
X502Y889D03*
X602Y1031D03*
X702Y889D03*
X802Y1031D03*
X902Y889D03*
X1002Y1031D03*
X302Y539D03*
X402Y681D03*
X502Y539D03*
X602Y681D03*
X702Y539D03*
X802Y681D03*
X902Y539D03*
X1002Y681D03*
X302Y199D03*
X402Y341D03*
X502Y199D03*
X602Y341D03*
X702Y199D03*
X802Y341D03*
X902Y199D03*
X1002Y341D03*
X1102Y199D03*
X1202Y341D03*
X1302Y199D03*
X1402Y341D03*
G04 End of Mask1*
M02*