; NON-PLATED HOLES START AT T1
; THROUGH (PLATED) HOLES START AT T100
M48
INCH
T1C0.125984
T100C0.125984
T101C0.015748
%
T1
X020987Y001981
X000987Y031981
X000987Y001981
X020987Y031981
T100
X015589Y031931
X004032Y029863
X002478Y020787
X002440Y027110
X019617Y027117
X006488Y016081
X019619Y020892
X015587Y016081
X006459Y031897
X004131Y018025
X018041Y018123
X001917Y024002
X018037Y029883
X020173Y023998
T101
X004020Y001987
X014020Y001987
T00
M30
